<svg width="36" height="36" viewBox="0 0 36 36" fill="none" xmlns="http://www.w3.org/2000/svg">
<circle cx="17.966" cy="17.8996" r="17.1836" stroke="white" stroke-width="1.43197"/>
<path d="M28.0925 11.9906C27.3418 12.3122 26.5455 12.5232 25.7301 12.6168C26.5794 12.1246 27.2315 11.3453 27.5386 10.4168C26.7312 10.88 25.8479 11.2063 24.9268 11.3817C24.1765 10.6089 23.1077 10.126 21.9246 10.126C19.6531 10.126 17.8115 11.9064 17.8115 14.1024C17.8115 14.4141 17.8479 14.7175 17.918 15.0087C14.4998 14.8428 11.4691 13.2597 9.4405 10.8539C9.08653 11.4412 8.88371 12.1243 8.88371 12.853C8.88371 14.2326 9.60988 15.4497 10.7134 16.1628C10.0603 16.143 9.42151 15.9725 8.85043 15.6654C8.85019 15.682 8.85019 15.6987 8.85019 15.7154C8.85019 17.6421 10.2679 19.2493 12.1494 19.6146C11.5438 19.7739 10.9085 19.7972 10.292 19.6828C10.8154 21.2626 12.3344 22.4122 14.1341 22.4444C12.7265 23.5108 10.953 24.1466 9.02608 24.1466C8.69404 24.1466 8.3667 24.1277 8.04492 24.091C9.8651 25.2193 12.027 25.8776 14.3497 25.8776C21.9151 25.8776 26.052 19.8183 26.052 14.5635C26.052 14.3911 26.0481 14.2196 26.0401 14.0491C26.8453 13.4863 27.5403 12.7892 28.0925 11.9906Z" fill="white"/>
</svg>
