<svg width="36" height="36" viewBox="0 0 36 36" fill="none" xmlns="http://www.w3.org/2000/svg">
<circle cx="17.8996" cy="17.8996" r="17.1836" stroke="white" stroke-width="1.43197"/>
<path d="M19.7723 19.3756V28.379H15.7773V19.3756V19.3555H15.7572H12.4987V15.6631H15.7572H15.7773V15.6429V12.7981C15.7773 11.1839 16.2581 9.93349 17.1041 9.08661C17.9502 8.23971 19.164 7.79407 20.6348 7.79407C21.3401 7.79407 22.0618 7.85702 22.6074 7.92002C22.8802 7.95152 23.1088 7.98301 23.2692 8.00663C23.3494 8.01843 23.4126 8.02827 23.4557 8.03516L23.5049 8.04314L23.505 8.04316V11.1839H21.8969C21.0904 11.1839 20.5582 11.4343 20.2279 11.8163C19.8981 12.1976 19.7723 12.7072 19.7723 13.2207V15.6429V15.6631H19.7924H23.3506L22.7839 19.3555H19.7924H19.7723V19.3756Z" fill="white" stroke="white" stroke-width="0.0402837"/>
</svg>
