<svg width="30" height="29" viewBox="0 0 30 29" fill="none" xmlns="http://www.w3.org/2000/svg">
<circle cx="15.2475" cy="14.6831" r="13.7376" stroke="#202124" stroke-width="1.1448"/>
<path d="M16.7451 15.8631V23.061H13.5513V15.8631V15.847H13.5352H10.9302V12.8951H13.5352H13.5513V12.879V10.6046C13.5513 9.31417 13.9357 8.31449 14.6121 7.63745C15.2885 6.96038 16.2589 6.60412 17.4346 6.60412C17.9985 6.60412 18.5755 6.65445 19.0117 6.70481C19.2298 6.72999 19.4125 6.75517 19.5408 6.77405C19.6049 6.78349 19.6554 6.79135 19.6899 6.79686L19.7292 6.80324L19.7293 6.80325V9.31418H18.4436C17.7989 9.31418 17.3734 9.51436 17.1093 9.81969C16.8457 10.1246 16.7451 10.5319 16.7451 10.9425V12.879V12.8951H16.7612H19.6058L19.1528 15.847H16.7612H16.7451V15.8631Z" fill="#202124" stroke="#202124" stroke-width="0.0322052"/>
</svg>
