<svg width="30" height="29" viewBox="0 0 30 29" fill="none" xmlns="http://www.w3.org/2000/svg">
<path d="M20.553 18.8198L20.553 18.8198C20.4271 19.1336 20.2753 19.3683 20.0321 19.6097M20.553 18.8198L10.3467 19.6053L10.3406 19.6114C10.5821 19.8545 10.8167 20.0064 11.1305 20.1322L11.1306 20.1322C11.5841 20.3116 12.3485 20.3807 13.1235 20.4052C13.6812 20.4228 14.2454 20.4173 14.7044 20.4128C14.8836 20.4111 15.0467 20.4095 15.1873 20.4095C15.3273 20.4095 15.4899 20.4111 15.6684 20.4128C16.1276 20.4173 16.6921 20.4228 17.2502 20.405C18.0248 20.3803 18.7887 20.3107 19.2422 20.1305L19.2423 20.1305C19.5561 20.0046 19.789 19.8528 20.0321 19.6097M20.553 18.8198C20.7332 18.3663 20.8027 17.6023 20.8274 16.8277C20.8452 16.2696 20.8397 15.7051 20.8353 15.2459C20.8335 15.0674 20.832 14.9049 20.832 14.7648C20.832 14.6243 20.8335 14.4611 20.8353 14.282C20.8398 13.8229 20.8453 13.2587 20.8277 12.701C20.8032 11.926 20.734 11.1616 20.5547 10.7081L20.5547 10.7081C20.4288 10.3943 20.277 10.1613 20.0339 9.9182M20.553 18.8198L20.0339 9.9182M20.0321 19.6097L20.0261 19.6036L20.0321 19.6097C20.0321 19.6097 20.0321 19.6097 20.0321 19.6097ZM20.0278 9.92425C19.7872 9.68197 19.5535 9.53076 19.2408 9.40532C18.4638 9.09809 16.7676 9.11463 15.6704 9.12533C15.4911 9.12708 15.3279 9.12867 15.1873 9.12867C15.0466 9.12867 14.8834 9.12708 14.7042 9.12533C13.6069 9.11463 11.9107 9.09809 11.1337 9.40532L20.545 18.8166C20.8539 18.0393 20.8374 16.343 20.8267 15.2462C20.8249 15.0676 20.8234 14.905 20.8234 14.7648C20.8234 14.6241 20.825 14.4609 20.8267 14.2817C20.8374 13.1844 20.8539 11.4882 20.5467 10.7112C20.4213 10.3985 20.2701 10.1665 20.0278 9.92425ZM20.0278 9.92425L20.0339 9.9182M20.0278 9.92425L20.0339 9.91818C20.0339 9.91819 20.0339 9.91819 20.0339 9.9182M22.0039 11.93L22.0039 11.93C22.0506 12.761 22.0497 13.5867 22.0488 14.4178C22.0487 14.5333 22.0485 14.649 22.0485 14.7648C22.0485 14.8943 22.0487 15.0236 22.0489 15.1528C22.0501 15.9701 22.0513 16.7822 22.0039 17.5995L22.0039 17.5996C21.9507 18.6983 21.7018 19.6701 20.8981 20.4739C20.096 21.2759 19.1224 21.5265 18.0238 21.5797L18.0237 21.5797C17.1927 21.6264 16.3671 21.6255 15.5359 21.6246C15.4204 21.6245 15.3047 21.6243 15.189 21.6243C15.0734 21.6243 14.958 21.6245 14.8427 21.6246C14.0126 21.6255 13.1867 21.6264 12.3542 21.5797L12.3542 21.5797C11.2555 21.5265 10.2837 21.2776 9.4799 20.4739C8.67784 19.6718 8.4273 18.6983 8.37408 17.5996L8.37408 17.5995C8.32732 16.7685 8.32824 15.9415 8.32916 15.1112C8.32929 14.9958 8.32942 14.8803 8.32942 14.7648C8.32942 14.6492 8.32929 14.5338 8.32916 14.4184C8.32824 13.5884 8.32733 12.7625 8.37408 11.93L8.37408 11.93C8.4273 10.8313 8.67612 9.85948 9.4799 9.0557C10.282 8.25364 11.2555 8.0031 12.3542 7.94989L12.3542 7.94988C13.1852 7.90313 14.0109 7.90405 14.842 7.90497C14.9575 7.90509 15.0732 7.90522 15.189 7.90522C15.3045 7.90522 15.42 7.90509 15.5353 7.90497C16.3653 7.90405 17.1912 7.90313 18.0237 7.94988L18.0238 7.94989C19.1225 8.0031 20.0943 8.25193 20.8981 9.0557C21.7001 9.85776 21.9507 10.8313 22.0039 11.93ZM11.6716 14.7648C11.6716 12.8192 13.2417 11.2491 15.1873 11.2491C17.1328 11.2491 18.703 12.8192 18.703 14.7648C18.703 16.7103 17.1328 18.2805 15.1873 18.2805C13.2417 18.2805 11.6716 16.7103 11.6716 14.7648ZM12.8881 14.7648C12.8881 16.0308 13.9213 17.0639 15.1873 17.0639C16.4533 17.0639 17.4864 16.0308 17.4864 14.7648C17.4864 13.4988 16.4533 12.4657 15.1873 12.4657C13.9213 12.4657 12.8881 13.4988 12.8881 14.7648ZM18.0414 11.0979C18.0414 10.6473 18.4053 10.2834 18.8559 10.2834C18.9629 10.2833 19.0689 10.3042 19.1677 10.3451C19.2666 10.386 19.3565 10.446 19.4321 10.5216C19.5078 10.5973 19.5678 10.6871 19.6086 10.786C19.6495 10.8849 19.6705 10.9909 19.6704 11.0979C19.6704 11.5502 19.3065 11.9124 18.8559 11.9124C18.4053 11.9124 18.0414 11.5485 18.0414 11.0979Z" fill="#202124" stroke="#202124" stroke-width="0.0171833"/>
<circle cx="15.1069" cy="14.6831" r="13.7376" stroke="#202124" stroke-width="1.1448"/>
</svg>
