<svg width="30" height="29" viewBox="0 0 30 29" fill="none" xmlns="http://www.w3.org/2000/svg">
<circle cx="14.8666" cy="14.6831" r="13.7376" stroke="#202124" stroke-width="1.1448"/>
<path d="M22.9627 9.95909C22.3626 10.2161 21.726 10.3849 21.0741 10.4597C21.7531 10.0662 22.2744 9.4432 22.5199 8.70088C21.8745 9.07118 21.1683 9.33209 20.4319 9.47232C19.8321 8.8545 18.9776 8.46838 18.0318 8.46838C16.2158 8.46838 14.7435 9.89178 14.7435 11.6474C14.7435 11.8966 14.7726 12.1392 14.8287 12.3719C12.0959 12.2393 9.67306 10.9737 8.05125 9.05031C7.76827 9.51983 7.60612 10.066 7.60612 10.6485C7.60612 11.7515 8.18667 12.7245 9.06891 13.2946C8.54675 13.2788 8.03607 13.1424 7.57951 12.8969C7.57933 12.9102 7.57933 12.9235 7.57933 12.9369C7.57933 14.4772 8.71275 15.7621 10.2169 16.0542C9.73272 16.1815 9.22482 16.2001 8.73203 16.1086C9.15043 17.3716 10.3648 18.2907 11.8036 18.3164C10.6783 19.169 9.26043 19.6773 7.71994 19.6773C7.45449 19.6773 7.1928 19.6622 6.93555 19.6329C8.3907 20.5349 10.1191 21.0612 11.976 21.0612C18.0242 21.0612 21.3315 16.217 21.3315 12.016C21.3315 11.8782 21.3283 11.7411 21.3219 11.6047C21.9657 11.1548 22.5213 10.5976 22.9627 9.95909Z" fill="#202124"/>
</svg>
