<svg width="29" height="29" viewBox="0 0 29 29" fill="none" xmlns="http://www.w3.org/2000/svg">
<circle cx="14.4877" cy="14.6831" r="13.7376" stroke="#202124" stroke-width="1.1448"/>
<path fill-rule="evenodd" clip-rule="evenodd" d="M23.1779 16.2011V21.795H19.5775V16.588C19.5775 15.2256 19.0148 14.2964 17.7766 14.2964C16.8288 14.2964 16.3012 14.9238 16.0571 15.5274C15.9643 15.7459 15.9793 16.0477 15.9793 16.3509V21.795H12.4121C12.4121 21.795 12.4585 12.5729 12.4121 11.7344H15.9793V13.3136C16.1901 12.623 17.3304 11.6383 19.1482 11.6383C21.4047 11.6383 23.1779 13.0841 23.1779 16.2011Z" stroke="#202124" stroke-width="1.14" stroke-linejoin="round"/>
<path fill-rule="evenodd" clip-rule="evenodd" d="M7.29883 21.7949H10.4732V11.7346H7.29883V21.7949Z" stroke="#202124" stroke-width="1.14" stroke-linejoin="round"/>
<path fill-rule="evenodd" clip-rule="evenodd" d="M10.6744 8.7802C10.6744 9.66367 9.99916 10.3641 8.91765 10.3641H8.89573C7.85295 10.3641 7.17773 9.66696 7.17773 8.78202C7.17773 7.87991 7.87304 7.19812 8.93775 7.19812C9.99916 7.19812 10.6525 7.87845 10.6744 8.7802Z" stroke="#202124" stroke-width="1.14" stroke-linejoin="round"/>
</svg>
