<svg width="27" height="24" viewBox="0 0 27 24" fill="none" xmlns="http://www.w3.org/2000/svg">
<path d="M11.1 7.04166C10.4764 6.62759 10.0019 6.02449 9.74632 5.3209C9.49073 4.61731 9.46745 3.85031 9.67991 3.13251C9.89237 2.41472 10.3294 1.78395 10.9267 1.33283C11.5241 0.881701 12.2504 0.633988 12.9989 0.626059C13.7474 0.618129 14.4788 0.850401 15.0856 1.28877C15.6924 1.72714 16.1427 2.34851 16.3703 3.06164C16.5979 3.77477 16.5909 4.5421 16.3502 5.25094C16.1096 5.95979 15.648 6.57281 15.0333 7M7.69165 19.7333C7.69238 20.499 7.44198 21.2439 6.97884 21.8536C6.5157 22.4634 5.86536 22.9045 5.12753 23.1092C4.38969 23.314 3.60507 23.2711 2.89394 22.9872C2.1828 22.7033 1.58439 22.194 1.19043 21.5374C0.796472 20.8808 0.628707 20.1131 0.712852 19.3521C0.796996 18.591 1.12841 17.8785 1.65628 17.3238C2.18416 16.7691 2.87937 16.4029 3.63535 16.2812C4.39133 16.1595 5.16636 16.289 5.84165 16.65M23.8333 16.9417C24.4226 17.3759 24.8589 17.9859 25.0795 18.6839C25.3 19.3819 25.2934 20.1319 25.0605 20.8259C24.8277 21.5199 24.3807 22.1221 23.7838 22.5458C23.1869 22.9695 22.4709 23.193 21.739 23.1839C21.007 23.1748 20.2968 22.9337 19.7106 22.4953C19.1244 22.0569 18.6924 21.4438 18.4769 20.7443C18.2613 20.0447 18.2732 19.2948 18.511 18.6025C18.7488 17.9102 19.2001 17.3112 19.8 16.8917M11.1 7.04166L8.94999 10.5M7.70832 13.1667L5.84165 16.65M17.0333 10.55L15.0333 7M17.85 13.425L19.825 16.8917M23.8333 16.9417L25.8167 13.475M11.5917 19.7333H7.73332" stroke="black" stroke-width="1.12253" stroke-linecap="round" stroke-linejoin="round"/>
</svg>
