<svg width="22" height="22" viewBox="0 0 22 22" fill="none" xmlns="http://www.w3.org/2000/svg">
<path d="M21.5142 5.33381C21.3881 4.8344 21.1419 4.3791 20.8003 4.01326C20.4587 3.64742 20.0336 3.38379 19.5672 3.24863C17.86 2.75 10.989 2.75 10.989 2.75C10.989 2.75 4.11758 2.76509 2.41034 3.26372C1.944 3.39889 1.51886 3.66253 1.17726 4.02839C0.835661 4.39425 0.589517 4.84957 0.463342 5.34899C-0.0530567 8.59754 -0.253377 13.5476 0.477521 16.6662C0.60371 17.1656 0.84986 17.6209 1.19146 17.9867C1.53306 18.3526 1.95819 18.6162 2.42452 18.7514C4.13176 19.25 11.003 19.25 11.003 19.25C11.003 19.25 17.8741 19.25 19.5813 18.7514C20.0476 18.6162 20.4728 18.3526 20.8144 17.9868C21.156 17.6209 21.4021 17.1656 21.5283 16.6662C22.073 13.413 22.2408 8.46612 21.5142 5.3339V5.33381Z" fill="#FF0000"/>
<path d="M8.25 13.75L13.75 11L8.25008 8.25L8.25 13.75Z" fill="white"/>
</svg>
