<svg width="36" height="36" viewBox="0 0 36 36" fill="none" xmlns="http://www.w3.org/2000/svg">
<circle cx="18.0344" cy="17.8996" r="17.1836" stroke="white" stroke-width="1.43197"/>
<path fill-rule="evenodd" clip-rule="evenodd" d="M28.9038 19.7977V26.7948H24.4003V20.2817C24.4003 18.5774 23.6965 17.4152 22.1476 17.4152C20.9621 17.4152 20.3021 18.1999 19.9968 18.9549C19.8807 19.2282 19.8995 19.6058 19.8995 19.9851V26.7948H15.4375C15.4375 26.7948 15.4955 15.2594 15.4375 14.2105H19.8995V16.1858C20.1632 15.322 21.5896 14.0903 23.8633 14.0903C26.6859 14.0903 28.9038 15.8988 28.9038 19.7977Z" stroke="white" stroke-width="1.42596" stroke-linejoin="round"/>
<path fill-rule="evenodd" clip-rule="evenodd" d="M9.04297 26.7953H13.0136V14.2114H9.04297V26.7953Z" stroke="white" stroke-width="1.42596" stroke-linejoin="round"/>
<path fill-rule="evenodd" clip-rule="evenodd" d="M13.2644 10.5156C13.2644 11.6206 12.4198 12.4968 11.067 12.4968H11.0396C9.73521 12.4968 8.89062 11.6248 8.89062 10.5178C8.89062 9.38944 9.76035 8.53662 11.0921 8.53662C12.4198 8.53662 13.237 9.38761 13.2644 10.5156Z" stroke="white" stroke-width="1.42596" stroke-linejoin="round"/>
</svg>
