<svg width="36" height="36" viewBox="0 0 36 36" fill="none" xmlns="http://www.w3.org/2000/svg">
<path d="M24.9125 23.074L24.9125 23.074C24.7551 23.4665 24.5651 23.76 24.261 24.062M24.9125 23.074L24.2534 24.0544M24.9125 23.074C25.1379 22.5067 25.2249 21.5511 25.2558 20.5822C25.2781 19.8841 25.2712 19.178 25.2656 18.6036C25.2635 18.3804 25.2615 18.177 25.2615 18.0018C25.2615 17.826 25.2635 17.622 25.2657 17.3979C25.2713 16.8236 25.2781 16.1179 25.2561 15.4203C25.2255 14.4509 25.139 13.4948 24.9147 12.9275L24.9147 12.9275C24.7572 12.535 24.5673 12.2436 24.2632 11.9395M24.9125 23.074L24.2632 11.9395M24.261 24.062L24.2534 24.0544M24.261 24.062C24.261 24.062 24.261 24.062 24.261 24.062L24.2534 24.0544M24.261 24.062C23.9569 24.3661 23.6655 24.5561 23.273 24.7135L23.273 24.7135C22.7057 24.9389 21.7501 25.0259 20.7812 25.0568C20.0832 25.0791 19.377 25.0722 18.8026 25.0666C18.5794 25.0644 18.3761 25.0625 18.2008 25.0625C18.0251 25.0625 17.821 25.0644 17.5969 25.0666C17.0227 25.0722 16.317 25.0791 15.6194 25.0571C14.6499 25.0265 13.6938 24.94 13.1265 24.7157L13.1265 24.7156C12.734 24.5582 12.4404 24.3683 12.1384 24.0641M24.2534 24.0544C23.9504 24.3575 23.6602 24.5466 23.269 24.7035C22.2967 25.0898 20.175 25.0692 18.803 25.0559C18.5797 25.0537 18.3762 25.0517 18.2008 25.0517C18.0249 25.0517 17.8207 25.0537 17.5965 25.0559C16.224 25.0693 14.1023 25.09 13.1305 24.7057C12.7393 24.5488 12.447 24.3596 12.1461 24.0566M12.1384 24.0641C12.1384 24.0641 12.1385 24.0641 12.1385 24.0642L12.1461 24.0566M12.1384 24.0641C11.8344 23.76 11.6444 23.4686 11.487 23.0761L11.487 23.0761C11.2626 22.5077 11.1762 21.5516 11.1455 20.5824C11.1235 19.8851 11.1304 19.1797 11.136 18.6057C11.1382 18.3816 11.1402 18.1776 11.1402 18.0018C11.1402 17.826 11.1382 17.622 11.136 17.3979C11.1304 16.8236 11.1235 16.1179 11.1455 15.4203C11.1762 14.4509 11.2626 13.4948 11.487 12.9275L11.487 12.9275C11.6444 12.535 11.8344 12.2414 12.1385 11.9394C12.4426 11.6375 12.7339 11.4454 13.1265 11.288L13.1265 11.2879C13.6938 11.0636 14.6499 10.9771 15.6194 10.9465C16.317 10.9245 17.0227 10.9314 17.5969 10.937C17.821 10.9392 18.0251 10.9411 18.2008 10.9411C18.3766 10.9411 18.5807 10.9392 18.8047 10.937C19.379 10.9314 20.0847 10.9245 20.7823 10.9465C21.7517 10.9771 22.7078 11.0636 23.2751 11.2879L23.2752 11.288C23.6677 11.4454 23.9612 11.6353 24.2632 11.9395M12.1384 24.0641L24.2632 11.9395M12.1461 24.0566C11.843 23.7535 11.6539 23.4633 11.497 23.0721L12.1461 24.0566ZM24.2556 11.947C23.9547 11.644 23.6624 11.4548 23.2712 11.2979C22.2993 10.9136 20.1776 10.9343 18.8051 10.9477C18.5809 10.9499 18.3767 10.9519 18.2008 10.9519C18.0249 10.9519 17.8207 10.9499 17.5965 10.9477C16.224 10.9343 14.1023 10.9136 13.1305 11.2979C12.7393 11.4548 12.4491 11.6461 12.1461 11.947C11.843 12.248 11.6539 12.5403 11.497 12.9315L24.9025 23.07C25.2889 22.0977 25.2682 19.976 25.2549 18.6039C25.2527 18.3806 25.2507 18.1772 25.2507 18.0018C25.2507 17.8259 25.2527 17.6217 25.2549 17.3975C25.2683 16.025 25.289 13.9033 24.9047 12.9315C24.7478 12.5403 24.5586 12.2501 24.2556 11.947ZM24.2556 11.947L24.2632 11.9395M24.2556 11.947L24.2632 11.9394C24.2632 11.9395 24.2632 11.9395 24.2632 11.9395M14.6565 26.5369C13.2809 26.4703 12.0622 26.1586 11.0542 25.1506C10.0483 24.1447 9.73448 22.9238 9.66785 21.5482L14.6565 26.5369ZM14.6565 26.5369C15.6982 26.5954 16.7316 26.5943 17.7698 26.5931M14.6565 26.5369L17.7698 26.5931M17.7698 26.5931C17.9141 26.593 18.0585 26.5928 18.203 26.5928M17.7698 26.5931L18.203 26.5928M18.203 26.5928C18.3478 26.5928 18.4924 26.593 18.6369 26.5931M18.203 26.5928L18.6369 26.5931M18.6369 26.5931C19.6765 26.5943 20.7097 26.5954 21.7494 26.5369L18.6369 26.5931ZM26.7274 14.4559L26.7274 14.456C26.7858 15.4954 26.7847 16.5282 26.7835 17.5678C26.7834 17.7123 26.7832 17.857 26.7832 18.0018C26.7832 18.1638 26.7835 18.3255 26.7837 18.4871C26.7852 19.5094 26.7867 20.5253 26.7274 21.5476L26.7274 21.5477C26.6608 22.922 26.3496 24.1376 25.3442 25.143C24.3409 26.1462 23.1231 26.4596 21.7489 26.5262L21.7488 26.5262C20.7094 26.5847 19.6766 26.5835 18.6369 26.5824C18.4924 26.5822 18.3478 26.5821 18.203 26.5821C18.0585 26.5821 17.9141 26.5822 17.7698 26.5824C16.7316 26.5835 15.6985 26.5847 14.6571 26.5262L14.657 26.5262C13.2828 26.4596 12.0672 26.1484 11.0618 25.143C10.0585 24.1397 9.74515 22.922 9.67859 21.5477L9.67858 21.5476C9.6201 20.5082 9.62124 19.4737 9.62239 18.4351C9.62255 18.2907 9.62271 18.1463 9.62271 18.0018C9.62271 17.8573 9.62255 17.7129 9.62239 17.5686C9.62124 16.5303 9.6201 15.4973 9.67858 14.456L9.67859 14.4559C9.74515 13.0816 10.0564 11.866 11.0618 10.8606C12.065 9.85736 13.2828 9.54398 14.657 9.47741L14.6571 9.47741C15.6965 9.41893 16.7293 9.42007 17.7689 9.42122C17.9135 9.42138 18.0581 9.42154 18.203 9.42154C18.3475 9.42154 18.4919 9.42138 18.6362 9.42122C19.6744 9.42007 20.7075 9.41893 21.7488 9.47741L21.7489 9.47741C23.1231 9.54398 24.3388 9.85522 25.3442 10.8606C26.3474 11.8639 26.6608 13.0816 26.7274 14.4559ZM13.8032 18.0018C13.8032 15.5682 15.7672 13.6042 18.2008 13.6042C20.6344 13.6042 22.5984 15.5682 22.5984 18.0018C22.5984 20.4354 20.6344 22.3994 18.2008 22.3994C15.7672 22.3994 13.8032 20.4354 13.8032 18.0018ZM15.325 18.0018C15.325 19.5854 16.6173 20.8776 18.2008 20.8776C19.7844 20.8776 21.0767 19.5854 21.0767 18.0018C21.0767 16.4182 19.7844 15.126 18.2008 15.126C16.6173 15.126 15.325 16.4182 15.325 18.0018ZM21.7709 13.4151C21.7709 12.8514 22.2261 12.3963 22.7897 12.3963C22.9236 12.3961 23.0561 12.4223 23.1798 12.4735C23.3035 12.5246 23.4158 12.5996 23.5105 12.6943C23.6051 12.7889 23.6802 12.9013 23.7313 13.025C23.7824 13.1487 23.8087 13.2812 23.8085 13.415C23.8085 13.9808 23.3534 14.4339 22.7897 14.4339C22.2261 14.4339 21.7709 13.9787 21.7709 13.4151Z" fill="white" stroke="white" stroke-width="0.0214936"/>
<circle cx="18.1008" cy="17.8996" r="17.1836" stroke="white" stroke-width="1.43197"/>
</svg>
